# This file uses centimeters as units for non-parametric coordinates.

mtllib onda.mtl
g default
v -3.860037 -5.000000 0.000000
v -3.860037 5.000000 0.000000
v -0.403329 0.000000 0.000000
v -1.514401 -2.500000 0.000000
v -1.514401 2.500000 0.000000
v -16.754114 -5.000000 0.000000
v -2.658284 -3.750000 0.000000
v -0.698523 -1.250000 0.000000
v -0.698523 1.250000 0.000000
v -2.658284 3.750000 0.000000
v -16.754114 5.000000 0.000000
v -16.754112 0.000000 0.000000
v -16.754114 -2.500000 0.000000
v -16.754114 2.500000 0.000000
v -16.754114 -3.750000 0.000000
v -16.754112 -1.250000 0.000000
v -16.754114 3.750000 0.000000
v -16.754112 1.250000 0.000000
vt 1.000000 0.000000
vt 1.000000 1.000000
vt 1.000000 0.500000
vt 1.000000 0.250000
vt 1.000000 0.750000
vt 0.875000 0.125000
vt 0.875000 0.375000
vt 0.875000 0.875000
vt 0.875000 0.625000
vt 0.875000 0.000000
vt 1.000000 0.125000
vt 0.875000 0.250000
vt 1.000000 0.375000
vt 0.875000 0.500000
vt 1.000000 0.875000
vt 0.875000 1.000000
vt 0.875000 0.750000
vt 1.000000 0.625000
vn 0.000000 0.000000 1.000000
vn 0.000000 0.000000 1.000000
vn 0.000000 0.000000 1.000000
vn 0.000000 0.000000 1.000000
vn 0.000000 0.000000 1.000000
vn 0.000000 0.000000 1.000000
vn 0.000000 0.000000 1.000000
vn 0.000000 0.000000 1.000000
vn 0.000000 0.000000 1.000000
vn 0.000000 0.000000 1.000000
vn 0.000000 0.000000 1.000000
vn 0.000000 0.000000 1.000000
vn 0.000000 0.000000 1.000000
vn 0.000000 0.000000 1.000000
vn 0.000000 0.000000 1.000000
vn 0.000000 0.000000 1.000000
vn 0.000000 0.000000 1.000000
vn 0.000000 0.000000 1.000000
s 1
g pPlane2 onda
usemtl initialShadingGroup
f 6/10/1 1/1/2 7/11/3 15/6/4
f 7/11/3 4/4/5 13/12/6 15/6/4
f 8/13/7 3/3/8 12/14/9 16/7/10
f 13/12/6 4/4/5 8/13/7 16/7/10
f 10/15/11 2/2/12 11/16/13 17/8/14
f 14/17/15 5/5/16 10/15/11 17/8/14
f 12/14/9 3/3/8 9/18/17 18/9/18
f 9/18/17 5/5/16 14/17/15 18/9/18
g default
v -2.860038 -5.000000 0.000000
v -2.860038 5.000000 0.000000
v 0.596671 0.000000 0.000000
v -0.514398 -2.500000 0.000000
v -0.514398 2.500000 0.000000
v 12.754116 -5.000000 0.000000
v -1.658284 -3.750000 0.000000
v 0.301479 -1.250000 0.000000
v 0.301479 1.250000 0.000000
v -1.658284 3.750000 0.000000
v 12.754116 5.000000 0.000000
v 12.754013 0.000000 0.000000
v 12.754065 2.500000 0.000000
v 12.754065 -2.500000 0.000000
v 12.754072 3.750000 0.000000
v 12.754028 1.250000 0.000000
v 12.754072 -3.750000 0.000000
v 12.754028 -1.250000 0.000000
vt 0.000000 0.000000
vt 0.000000 1.000000
vt 0.000000 0.500000
vt 0.000000 0.750000
vt 0.000000 0.250000
vt 0.125000 0.875000
vt 0.125000 0.625000
vt 0.125000 0.125000
vt 0.125000 0.375000
vt 0.125000 1.000000
vt 0.000000 0.875000
vt 0.125000 0.750000
vt 0.000000 0.625000
vt 0.125000 0.500000
vt 0.000000 0.125000
vt 0.125000 0.000000
vt 0.125000 0.250000
vt 0.000000 0.375000
vn 0.000000 0.000000 1.000000
vn 0.000000 0.000000 1.000000
vn 0.000000 0.000000 1.000000
vn 0.000000 0.000000 1.000000
vn 0.000000 0.000000 1.000000
vn 0.000000 0.000000 1.000000
vn 0.000000 0.000000 1.000000
vn 0.000000 0.000000 1.000000
vn 0.000000 0.000000 1.000000
vn 0.000000 0.000000 1.000000
vn 0.000000 0.000000 1.000000
vn 0.000000 0.000000 1.000000
vn 0.000000 0.000000 1.000000
vn 0.000000 0.000000 1.000000
vn 0.000000 0.000000 1.000000
vn 0.000000 0.000000 1.000000
vn 0.000000 0.000000 1.000000
vn 0.000000 0.000000 1.000000
s 1
g onda pPlane1
usemtl initialShadingGroup
f 29/28/19 20/20/20 28/29/21 33/24/22
f 28/29/21 23/22/23 31/30/24 33/24/22
f 27/31/25 21/21/26 30/32/27 34/25/28
f 31/30/24 23/22/23 27/31/25 34/25/28
f 25/33/29 19/19/30 24/34/31 35/26/32
f 32/35/33 22/23/34 25/33/29 35/26/32
f 30/32/27 21/21/26 26/36/35 36/27/36
f 26/36/35 22/23/34 32/35/33 36/27/36
